<?xml version="1.0" standalone="no"?>
<!DOCTYPE svg PUBLIC "-//W3C//DTD SVG 20010904//EN"
 "http://www.w3.org/TR/2001/REC-SVG-20010904/DTD/svg10.dtd">
<svg version="1.0" xmlns="http://www.w3.org/2000/svg"
 width="16.000000pt" height="16.000000pt" viewBox="0 0 16.000000 16.000000"
 preserveAspectRatio="xMidYMid meet">
<metadata>
Created by potrace 1.11, written by Peter Selinger 2001-2013
</metadata>
<g transform="translate(0.000000,16.000000) scale(0.006154,-0.006154)"
fill="#000000" stroke="none">
<path d="M1262 2538 c-13 -24 -42 -78 -65 -121 -23 -42 -59 -110 -80 -150 -47
-88 -58 -104 -79 -109 -9 -1 -62 19 -117 47 -82 40 -104 47 -111 36 -5 -8 -4
-25 1 -39 5 -14 9 -32 8 -41 -1 -9 1 -23 4 -31 5 -13 11 -47 32 -175 1 -5 3
-12 4 -15 3 -6 7 -26 15 -70 3 -19 13 -71 21 -115 9 -44 16 -87 16 -95 0 -8 3
-22 6 -30 13 -35 4 -80 -17 -80 -11 0 -130 115 -130 125 0 7 -27 37 -132 146
-27 27 -54 49 -62 49 -14 0 -37 -58 -51 -128 -9 -46 -30 -53 -109 -37 -37 8
-85 17 -108 20 -22 4 -51 11 -65 16 -14 5 -29 7 -34 3 -5 -3 -9 -1 -9 3 0 5
-15 10 -34 11 -47 3 -52 -19 -27 -105 56 -192 65 -226 77 -289 6 -31 4 -33
-64 -65 -39 -19 -73 -40 -76 -47 -8 -18 12 -47 46 -67 16 -9 47 -34 68 -55 22
-22 40 -37 40 -34 0 3 44 -32 98 -76 53 -45 112 -93 131 -108 18 -15 44 -37
58 -49 13 -13 27 -23 31 -23 16 -1 123 -107 126 -126 2 -11 -8 -57 -23 -102
-15 -45 -24 -86 -20 -93 8 -14 95 -8 289 22 74 11 175 26 224 31 82 10 90 10
103 -7 7 -11 11 -32 8 -50 -3 -24 -13 -250 -19 -470 l-1 -40 61 -3 61 -3 -1
288 -1 288 55 -1 c49 -1 113 -8 175 -19 39 -7 231 -34 290 -41 33 -3 63 -8 67
-10 3 -2 13 2 21 10 12 13 11 24 -10 88 -41 121 -42 114 29 180 34 32 67 58
71 58 5 0 18 11 29 25 11 14 26 25 33 25 8 0 18 6 22 13 4 7 44 42 88 77 44
35 96 78 115 94 20 17 50 42 69 56 94 71 121 96 121 113 0 7 -33 30 -73 51
-66 34 -74 40 -71 64 1 15 3 29 5 32 1 3 3 10 4 15 3 17 25 98 40 145 7 25 16
56 19 70 3 14 11 46 18 73 20 81 21 81 -291 12 -65 -14 -92 -10 -97 16 -15 69
-44 154 -54 157 -12 4 -110 -85 -110 -100 0 -4 -19 -27 -42 -51 -24 -23 -68
-70 -98 -104 -30 -34 -63 -64 -72 -67 -19 -4 -38 20 -31 40 3 10 36 183 47
249 2 11 6 27 9 35 2 8 12 67 22 130 9 63 21 124 25 135 18 43 22 95 7 101 -8
3 -57 -15 -108 -40 -51 -25 -100 -46 -109 -46 -23 0 -40 22 -96 125 -26 50
-60 113 -75 140 -16 28 -38 70 -51 95 -38 74 -55 78 -86 18z"/>
</g>
</svg>
